<svg xmlns="http://www.w3.org/2000/svg" id="b14a1a4b-67d4-4c6b-b393-ca73a6728c51" data-name="Layer 1" width="32" height="32" viewBox="0 0 32 32"><path d="M15.3981,26a1.1422,1.1422,0,0,0,1.2091-1.0611V23.8577a5.2182,5.2182,0,0,0,4.3138-4.0068c.4266-2.2266-.9-4.1622-3.38-4.9313-.307-.0952-.6208-.1948-.9339-.2982V10.1153a3.4663,3.4663,0,0,1,1.2329.5388,1.3316,1.3316,0,0,0,1.7-.0679.9721.9721,0,0,0-.069-1.4993,6.2383,6.2383,0,0,0-2.8638-1.139V7.0612a1.22,1.22,0,0,0-2.4184,0V8.027c-.1467.03-.295.0627-.4466.1027a4.3085,4.3085,0,0,0-3.1911,3.2054A3.3651,3.3651,0,0,0,11.9,14.8888a11.2609,11.2609,0,0,0,2.2884,1.1561v5.7742a4.87,4.87,0,0,1-2.3173-.7889,1.315,1.315,0,0,0-1.6738.3071.9854.9854,0,0,0,.35,1.4689,7.4494,7.4494,0,0,0,3.641,1.1392v.9936A1.1431,1.1431,0,0,0,15.3981,26ZM17,17c.044.0141.0856.0279.13.0421A2.3069,2.3069,0,0,1,18.96,19.7505,3.0357,3.0357,0,0,1,17,22Zm-3-3a4.9977,4.9977,0,0,1-.61-.5323,2.2023,2.2023,0,0,1-.3565-1.7389A2.4236,2.4236,0,0,1,14,10Z" transform="translate(-0.1379 -0.0491)"></path><path d="M16.1379.0491A16,16,0,1,0,28.63,26.046a1.1811,1.1811,0,1,0-1.8434-1.477,13.5768,13.5768,0,1,1,2.2492-4.077,1.181,1.181,0,1,0,2.2332.7692A16.0083,16.0083,0,0,0,16.1379.0491Z" transform="translate(-0.1379 -0.0491)"></path></svg>