<svg xmlns="http://www.w3.org/2000/svg" id="f142037d-0102-4452-8c74-5bfeb5302515" data-name="Layer 1" width="8.9" height="8.9" viewBox="0 0 8.9 8.9"><rect width="8.9" height="8.9" style="opacity:0"></rect><path id="fc95fc88-c50a-49ee-922d-01398be6d8b6" data-name="&#xF106;" d="M8.2,7.05c.1,0,.1,0,.2-.1h0l.4-.4c.1-.1.1-.1.1-.2s0-.1-.1-.2h0L4.7,1.95a.31.31,0,0,0-.2-.1.3674.3674,0,0,0-.3.1h0L.1,6.05a.3674.3674,0,0,0-.1.3c0,.1,0,.1.1.2h0l.4.4c.1.1.1.1.2.1s.1,0,.2-.1h0l3.5-3.5L8,6.95C8,7.05,8.1,7.05,8.2,7.05Z"></path></svg>