<svg xmlns="http://www.w3.org/2000/svg" id="ab4d00e1-c144-4a2e-9606-aee5e201697a" data-name="Layer 1" width="35.8739" height="43.9601" viewBox="0 0 35.8739 43.9601"><path d="M35.81,37.8714,30.5485,24.6191A15.821,15.821,0,1,0,5.06,25.8836L.0635,38.4761A.9.9,0,0,0,1.1776,39.665l6.3332-2.0717,3.0762,5.9221A.899.899,0,0,0,11.3846,44l.0458-.0009a.9.9,0,0,0,.79-.5665l4.65-11.6963c.1582.0047.3169.0078.4762.0078a15.9517,15.9517,0,0,0,1.855-.1115L23.65,42.8306a.8991.8991,0,0,0,.79.5664h.0459a.8984.8984,0,0,0,.7976-.4863l3.08-5.9219L34.696,39.06A.9.9,0,0,0,35.81,37.8714ZM11.2784,40.9385,8.7526,36.0838a.8986.8986,0,0,0-1.0791-.44L2.4392,37.3547,6.4113,27.3516a15.7675,15.7675,0,0,0,8.59,4.219Zm7.2285-11.0522c-.3036.0249-.61.0377-.9191.0431-.0807.0014-.1609.005-.242.005a14.14,14.14,0,0,1-1.6557-.0978,13.9836,13.9836,0,0,1-8.5518-4.3159A14.0549,14.0549,0,0,1,17.3458,1.8331V1.83a14.0517,14.0517,0,0,1,1.1611,28.0559ZM28.2,35.04a.8986.8986,0,0,0-1.0791.44l-2.5258,4.8547-3.5861-9.0229A15.8361,15.8361,0,0,0,29.24,26.3351L33.4344,36.751Z" transform="translate(0 -0.0399)"></path><polygon points="22.007 23.96 22.007 23.96 22.006 23.96 22.007 23.96"></polygon><path d="M25.2293,12.7968l-5.13-.7381L17.8064,7.457a.941.941,0,0,0-1.6146,0L13.9,12.0587l-5.13.7381a.9015.9015,0,0,0-.5155.26.8849.8849,0,0,0,.017,1.26l3.71,3.582L11.106,22.958a.8842.8842,0,0,0,.0906.5654.9043.9043,0,0,0,1.2153.3741l4.59-2.3878,4.5871,2.3878a.9028.9028,0,0,0,.5691.09.8924.8924,0,0,0,.7351-1.0291l-.8758-5.0589,3.7106-3.582a.8883.8883,0,0,0-.4986-1.52Zm-4.8058,4.15a.8859.8859,0,0,0-.2593.7887l.6481,3.7434L17.42,19.713a.8977.8977,0,0,0-.8352.0027L13.1931,21.482l.648-3.7432a.8865.8865,0,0,0-.2593-.7888l-2.7457-2.6489,3.7916-.5455a.9.9,0,0,0,.6786-.4874l1.6955-3.4038,1.6955,3.4011a.9.9,0,0,0,.6786.4876l3.7915.5454Z" transform="translate(0 -0.0399)"></path></svg>