<svg xmlns="http://www.w3.org/2000/svg" id="ad6f0e56-5d6b-4cf7-a66c-b4d5bcfc51a8" data-name="Layer 1" width="32" height="32.0607" viewBox="0 0 32 32.0607"><path d="M28.9376,7.5053h.3933a.9029.9029,0,0,0,0-1.8058H26.9993a.903.903,0,0,0-.9.9029v2.336a.9.9,0,0,0,1.778.202A14.16,14.16,0,1,1,17.7319,2.8161l.11.0071A.9028.9028,0,0,0,17.95,1.0245,16.18,16.18,0,0,0,16,.9067,16.0139,16.0139,0,0,0,0,16.9376a16,16,0,1,0,32,0A16.119,16.119,0,0,0,28.9376,7.5053Z" transform="translate(0 -0.9067)" style="fill-rule:evenodd"></path><path d="M7.84,10.8664a.8272.8272,0,0,0-1.1407.2567A11.0075,11.0075,0,0,0,8.2215,24.7822,11.003,11.003,0,1,0,17.1674,6.0616a11.0235,11.0235,0,0,0-7.0257,1.6262.8267.8267,0,0,0,.8822,1.3984,9.35,9.35,0,1,1-2.9275,2.9219A.8288.8288,0,0,0,7.84,10.8664Z" transform="translate(0 -0.9067)" style="fill-rule:evenodd"></path><path d="M21.5,12.8134a.8018.8018,0,0,0-.2432-.5753.8375.8375,0,0,0-1.17,0l-3.7,3.6213a2.232,2.232,0,0,0-1.7083,0L12.913,14.13a.84.84,0,0,0-1.17,0,.8041.8041,0,0,0,0,1.1523l1.7632,1.7267a2.1317,2.1317,0,0,0-.1722.8357,2.1994,2.1994,0,0,0,4.398,0,2.1284,2.1284,0,0,0-.1722-.8357l3.6958-3.62A.8022.8022,0,0,0,21.5,12.8134Zm-5.9663,5.56a.5283.5283,0,1,1,.5414-.5286A.5354.5354,0,0,1,15.5337,18.3733Z" transform="translate(0 -0.9067)" style="fill-rule:evenodd"></path></svg>