<svg xmlns="http://www.w3.org/2000/svg" id="aa841b22-7045-44f8-8367-6c42dd74623f" data-name="Layer 1" width="30" height="30" viewBox="0 0 30 30"><path d="M9.9318,12.7385a1.0842,1.0842,0,0,0-1.5727-.0675,1.1885,1.1885,0,0,0-.0649,1.6341l5.602,6.3217a1.0933,1.0933,0,0,0,.795.3728l.0238,0a1.0934,1.0934,0,0,0,.7858-.3373L29.6728,5.9753A1.1885,1.1885,0,0,0,29.675,4.34a1.0833,1.0833,0,0,0-1.5737-.0019L14.7491,18.1751Z"></path><path d="M28.8693,13.8693A1.1305,1.1305,0,0,0,27.7387,15,12.7387,12.7387,0,1,1,15,2.2613,1.1307,1.1307,0,1,0,15,0,15,15,0,1,0,30,15,1.1306,1.1306,0,0,0,28.8693,13.8693Z"></path></svg>