<svg xmlns="http://www.w3.org/2000/svg" id="a21fba4f-7517-4715-87d2-3675e31722d4" data-name="Layer 1" width="27" height="27" viewBox="0 0 27 27"><path d="M8.2034,0A13.7214,13.7214,0,0,0,4.6507,3.2374a21.1552,21.1552,0,0,0-3.2943,5.73A19.646,19.646,0,0,0,0,16.3165a15.6686,15.6686,0,0,0,.872,5.2122A10.3971,10.3971,0,0,0,3.23,25.5108,4.382,4.382,0,0,0,6.33,27a3.4679,3.4679,0,0,0,2.5192-.9388,3.482,3.482,0,0,0,.9689-2.6224,3.7116,3.7116,0,0,0-.42-1.8453,13.6679,13.6679,0,0,0-1.3241-1.8453,18.162,18.162,0,0,1-1.8733-2.946,8.1319,8.1319,0,0,1-.6458-3.5288A14.55,14.55,0,0,1,7.0084,6.4748,12.4182,12.4182,0,0,1,10.012,2.46V1.7482L8.2679,0Z"></path><path d="M27,2.46V1.7482L25.1914,0h-.0646a13.72,13.72,0,0,0-3.5526,3.2374,21.1552,21.1552,0,0,0-3.2943,5.73,19.646,19.646,0,0,0-1.3564,7.3488,15.6686,15.6686,0,0,0,.872,5.2122,10.3958,10.3958,0,0,0,2.3576,3.9821A4.44,4.44,0,0,0,23.3182,27a3.2884,3.2884,0,0,0,3.488-3.5612,3.7116,3.7116,0,0,0-.42-1.8453,13.6791,13.6791,0,0,0-1.3242-1.8453,14.21,14.21,0,0,1-1.9378-2.9137,8.3545,8.3545,0,0,1-.6459-3.5611,14.2861,14.2861,0,0,1,1.4856-6.7986A12.7542,12.7542,0,0,1,27,2.46Z"></path></svg>