<svg xmlns="http://www.w3.org/2000/svg" id="b19050d0-a3fa-4851-91fc-1e9290f89e4c" data-name="Layer 1" width="8.9" height="8.9" viewBox="0 0 8.9 8.9"><rect width="8.9" height="8.9" style="opacity:0"></rect><path id="e29c3bb9-62a9-46ef-8a6d-b677369a6fa8" data-name="&#xF106;" d="M.7,1.85c-.1,0-.1,0-.2.1h0l-.4.4c-.1.1-.1.1-.1.2s0,.1.1.2h0l4.1,4.2a.31.31,0,0,0,.2.1.3674.3674,0,0,0,.3-.1h0l4.1-4.1a.3674.3674,0,0,0,.1-.3c0-.1,0-.1-.1-.2h0l-.4-.4c-.1-.1-.1-.1-.2-.1s-.1,0-.2.1H8L4.5,5.45.9,1.95C.9,1.85.8,1.85.7,1.85Z"></path></svg>